<svg xmlns="http://www.w3.org/2000/svg" width="715" height="76" viewBox="0 0 715 76"><path fill="#000000" d="M78 4.70L84.10 4.70L84.10 74.70L77 74.70L77 18.70L49.50 65.80L46 65.80L18.50 19L18.50 74.70L11.40 74.70L11.40 4.70L17.50 4.70L47.90 56.60L78 4.70ZM123.80 21.70Q134.10 21.70 139.60 26.85Q145.10 32 145.10 42.10L145.10 42.10L145.10 74.70L138.30 74.70L138.30 66.50Q135.90 70.60 131.25 72.90Q126.60 75.20 120.20 75.20L120.20 75.20Q111.40 75.20 106.20 71Q101 66.80 101 59.90L101 59.90Q101 53.20 105.85 49.10Q110.70 45 121.30 45L121.30 45L138 45L138 41.80Q138 35 134.20 31.45Q130.40 27.90 123.10 27.90L123.10 27.90Q118.10 27.90 113.50 29.55Q108.90 31.20 105.60 34.10L105.60 34.10L102.40 28.80Q106.40 25.40 112 23.55Q117.60 21.70 123.80 21.70L123.80 21.70ZM121.30 69.60Q127.30 69.60 131.60 66.85Q135.90 64.10 138 58.90L138 58.90L138 50.30L121.50 50.30Q108 50.30 108 59.70L108 59.70Q108 64.30 111.50 66.95Q115 69.60 121.30 69.60L121.30 69.60ZM171.20 32.40Q173.70 27.10 178.65 24.40Q183.60 21.70 190.90 21.70L190.90 21.70L190.90 28.60L189.20 28.50Q180.90 28.50 176.20 33.60Q171.50 38.70 171.50 47.90L171.50 47.90L171.50 74.70L164.40 74.70L164.40 22.10L171.20 22.10L171.20 32.40ZM225 75.20Q217.20 75.20 211.05 71.80Q204.90 68.40 201.40 62.25Q197.90 56.10 197.90 48.40L197.90 48.40Q197.90 40.70 201.40 34.60Q204.90 28.50 211.05 25.10Q217.20 21.70 225 21.70L225 21.70Q231.80 21.70 237.15 24.35Q242.50 27 245.60 32.10L245.60 32.10L240.30 35.70Q237.70 31.80 233.70 29.85Q229.70 27.90 225 27.90L225 27.90Q219.30 27.90 214.75 30.45Q210.20 33 207.65 37.70Q205.10 42.40 205.10 48.40L205.10 48.40Q205.10 54.50 207.65 59.15Q210.20 63.80 214.75 66.35Q219.30 68.90 225 68.90L225 68.90Q229.70 68.90 233.70 67Q237.70 65.10 240.30 61.20L240.30 61.20L245.60 64.80Q242.50 69.90 237.10 72.55Q231.70 75.20 225 75.20L225 75.20ZM280.10 75.20Q272.50 75.20 266.40 71.75Q260.30 68.30 256.80 62.20Q253.30 56.10 253.30 48.40L253.30 48.40Q253.30 40.70 256.80 34.60Q260.30 28.50 266.40 25.10Q272.50 21.70 280.10 21.70L280.10 21.70Q287.70 21.70 293.80 25.10Q299.90 28.50 303.35 34.60Q306.80 40.70 306.80 48.40L306.80 48.40Q306.80 56.10 303.35 62.20Q299.90 68.30 293.80 71.75Q287.70 75.20 280.10 75.20L280.10 75.20ZM280.10 68.90Q285.70 68.90 290.15 66.35Q294.60 63.80 297.10 59.10Q299.60 54.40 299.60 48.40L299.60 48.40Q299.60 42.40 297.10 37.70Q294.60 33 290.15 30.45Q285.70 27.90 280.10 27.90L280.10 27.90Q274.50 27.90 270.05 30.45Q265.60 33 263.05 37.70Q260.50 42.40 260.50 48.40L260.50 48.40Q260.50 54.40 263.05 59.10Q265.60 63.80 270.05 66.35Q274.50 68.90 280.10 68.90L280.10 68.90ZM335.40 75.20Q329 75.20 323.15 73.35Q317.30 71.50 314 68.70L314 68.70L317.20 63.10Q320.50 65.70 325.50 67.35Q330.50 69 335.90 69L335.90 69Q343.10 69 346.55 66.75Q350 64.50 350 60.40L350 60.40Q350 57.50 348.10 55.85Q346.20 54.20 343.30 53.35Q340.40 52.50 335.60 51.70L335.60 51.70Q329.20 50.50 325.30 49.25Q321.40 48 318.65 45Q315.90 42 315.90 36.70L315.90 36.70Q315.90 30.10 321.40 25.90Q326.90 21.70 336.70 21.70L336.70 21.70Q341.80 21.70 346.90 23.05Q352 24.40 355.30 26.60L355.30 26.60L352.20 32.30Q345.70 27.80 336.70 27.80L336.70 27.80Q329.90 27.80 326.45 30.20Q323 32.60 323 36.50L323 36.50Q323 39.50 324.95 41.30Q326.90 43.10 329.80 43.95Q332.70 44.80 337.80 45.70L337.80 45.70Q344.10 46.90 347.90 48.10Q351.70 49.30 354.40 52.20Q357.10 55.10 357.10 60.20L357.10 60.20Q357.10 67.10 351.35 71.15Q345.60 75.20 335.40 75.20L335.40 75.20ZM428.30 75.30Q417.90 75.30 409.55 70.70Q401.20 66.10 396.45 57.95Q391.70 49.80 391.70 39.70L391.70 39.70Q391.70 29.60 396.45 21.45Q401.20 13.30 409.60 8.70Q418.00 4.10 428.40 4.10L428.40 4.10Q436.20 4.10 442.80 6.70Q449.40 9.30 454.00 14.30L454.00 14.30L449.30 19Q441.10 10.70 428.60 10.70L428.60 10.70Q420.30 10.70 413.50 14.50Q406.70 18.30 402.85 24.90Q399.00 31.50 399.00 39.70L399.00 39.70Q399.00 47.90 402.85 54.50Q406.70 61.10 413.50 64.90Q420.30 68.70 428.60 68.70L428.60 68.70Q441.20 68.70 449.30 60.30L449.30 60.30L454.00 65Q449.40 70 442.75 72.65Q436.10 75.30 428.30 75.30L428.30 75.30ZM495.10 21.70Q505 21.70 510.85 27.45Q516.70 33.20 516.70 44.20L516.70 44.20L516.70 74.70L509.60 74.70L509.60 44.90Q509.60 36.70 505.50 32.40Q501.40 28.10 493.80 28.10L493.80 28.10Q485.30 28.10 480.35 33.15Q475.40 38.20 475.40 47.10L475.40 47.10L475.40 74.70L468.30 74.70L468.30 0.50L475.40 0.50L475.40 31.30Q478.30 26.70 483.40 24.20Q488.50 21.70 495.10 21.70L495.10 21.70ZM554.40 21.70Q564.70 21.70 570.20 26.85Q575.70 32 575.70 42.10L575.70 42.10L575.70 74.70L568.90 74.70L568.90 66.50Q566.50 70.60 561.85 72.90Q557.20 75.20 550.80 75.20L550.80 75.20Q542 75.20 536.80 71Q531.60 66.80 531.60 59.90L531.60 59.90Q531.60 53.20 536.45 49.10Q541.30 45 551.90 45L551.90 45L568.60 45L568.60 41.80Q568.60 35 564.80 31.45Q561 27.90 553.70 27.90L553.70 27.90Q548.70 27.90 544.10 29.55Q539.50 31.20 536.20 34.10L536.20 34.10L533 28.80Q537 25.40 542.60 23.55Q548.20 21.70 554.40 21.70L554.40 21.70ZM551.90 69.60Q557.90 69.60 562.20 66.85Q566.50 64.10 568.60 58.90L568.60 58.90L568.60 50.30L552.10 50.30Q538.60 50.30 538.60 59.70L538.60 59.70Q538.60 64.30 542.10 66.95Q545.60 69.60 551.90 69.60L551.90 69.60ZM612.40 6Q607.80 6 605.45 8.50Q603.10 11 603.10 15.90L603.10 15.90L603.10 22.10L619.30 22.10L619.30 28.10L603.30 28.10L603.30 74.70L596.20 74.70L596.20 28.10L586.80 28.10L586.80 22.10L596.20 22.10L596.20 15.60Q596.20 8.40 600.35 4.20Q604.50 0 612.10 0L612.10 0Q615.10 0 617.90 0.85Q620.70 1.70 622.60 3.30L622.60 3.30L620.20 8.60Q617.10 6 612.40 6L612.40 6ZM673.90 48.40L673.80 50.60L629.80 50.60Q630.40 58.80 636.10 63.85Q641.80 68.90 650.50 68.90L650.50 68.90Q655.40 68.90 659.50 67.15Q663.60 65.40 666.60 62L666.60 62L670.60 66.60Q667.10 70.80 661.85 73Q656.60 75.20 650.30 75.20L650.30 75.20Q642.20 75.20 635.95 71.75Q629.70 68.30 626.20 62.20Q622.70 56.10 622.70 48.40L622.70 48.40Q622.70 40.70 626.05 34.60Q629.40 28.50 635.25 25.10Q641.10 21.70 648.40 21.70L648.40 21.70Q655.70 21.70 661.50 25.10Q667.30 28.50 670.60 34.55Q673.90 40.60 673.90 48.40L673.90 48.40ZM648.40 27.80Q640.80 27.80 635.65 32.65Q630.50 37.50 629.80 45.30L629.80 45.30L667.10 45.30Q666.40 37.50 661.25 32.65Q656.10 27.80 648.40 27.80L648.40 27.80ZM695.20 32.40Q697.70 27.10 702.65 24.40Q707.60 21.70 714.90 21.70L714.90 21.70L714.90 28.60L713.20 28.50Q704.90 28.50 700.20 33.60Q695.50 38.70 695.50 47.90L695.50 47.90L695.50 74.70L688.40 74.70L688.40 22.10L695.20 22.10L695.20 32.40Z"></path></svg>